<?xml version="1.0" encoding="utf-8"?>
<!-- Uploaded to: SVG Repo, www.svgrepo.com, Generator: SVG Repo Mixer Tools -->
<svg width="800px" height="800px" viewBox="0 0 1024 1024" class="icon"  version="1.1" xmlns="http://www.w3.org/2000/svg"><path d="M488.093 257.294h24.062v240h-24.062zM308.093 257.294h24.064v240h-24.064zM668.094 257.294h24.062v240h-24.062z" fill="#0DB14B" /><path d="M367.23 238.775c0 26.015-21.089 47.105-47.106 47.105-26.015 0-47.105-21.09-47.105-47.105 0-26.017 47.105-88.069 47.105-88.069s47.106 62.052 47.106 88.069zM727.231 238.775c0 26.015-21.09 47.105-47.107 47.105-26.015 0-47.106-21.09-47.106-47.105 0-26.017 47.106-88.069 47.106-88.069s47.107 62.052 47.107 88.069zM547.231 238.775c0 26.015-21.091 47.105-47.106 47.105-26.017 0-47.107-21.09-47.107-47.105 0-26.017 47.107-88.069 47.107-88.069s47.106 62.052 47.106 88.069z" fill="#FCB814" /><path d="M879.999 841.293V658.511c0-106.712-66.261-193.215-148-193.215h-440c-81.737 0-148 86.503-148 193.215v182.783h736z" fill="#FF3B30" /><path d="M193.472 672.129c-8.246 0-14.933-6.687-14.933-14.934 0-87.908 56.349-159.425 125.613-159.425 8.247 0 14.933 6.687 14.933 14.933 0 8.246-6.686 14.934-14.933 14.934-52.791 0-95.747 58.122-95.747 129.558 0.001 8.246-6.687 14.934-14.933 14.934z" fill="#EEEEEE" /><path d="M732.001 465.296H660c81.739 0 148 86.501 148 193.215v82.095l-664 44.688 736.001 56.001V658.511c0-106.714-66.263-193.215-148-193.215z" fill="" /><path d="M64 785.293h896v88.001H64z" fill="#152B3C" /><path d="M887.999 785.293H960v87.999h-72.001z" fill="" /></svg>