<?xml version="1.0" encoding="iso-8859-1"?>
<!-- Uploaded to: SVG Repo, www.svgrepo.com, Generator: SVG Repo Mixer Tools -->
<svg height="800px" width="800px" version="1.1" id="Layer_1" xmlns="http://www.w3.org/2000/svg" xmlns:xlink="http://www.w3.org/1999/xlink" 
	 viewBox="0 0 504 504" xml:space="preserve">
<circle style="fill:#FD8469;" cx="252" cy="252" r="252"/>
<path style="fill:#FFFFFF;" d="M354.8,409.6H149.2c-10,0-18-8-18-18V112.4c0-10,8-18,18-18h205.6c10,0,18,8,18,18v279.2
	C372.8,401.6,364.8,409.6,354.8,409.6z"/>
<g>
	<path style="fill:#2B3B4E;" d="M184,154.8l-4.4-10.4h-20.4l-4.4,10.4h-11.6l20.8-48.4h10.4l20.8,48.4H184z M169.2,120.8l-6,14h12
		L169.2,120.8z"/>
	<path style="fill:#2B3B4E;" d="M320,349.2l4.4,10.4h20.4l4.4-10.4h11.6L340,397.6h-10.4l-20.8-48.4H320z M334.8,383.2l6-14h-12
		L334.8,383.2z"/>
</g>
<path style="fill:#F1543F;" d="M252,207.2c13.6-17.2,32.8-21.2,46.4-16c33.2,12.8,41.2,61.6,12.4,92C252,346.4,252,346.4,252,346.4
	s0,0-59.2-63.2c-28.8-30.8-20.8-79.2,12.4-92C219.2,186,238.4,189.6,252,207.2z"/>
</svg>