<svg width="143.95625px" height="74px" xmlns="http://www.w3.org/2000/svg" viewBox="178.021875 38 143.95625 74" style="background: none;" preserveAspectRatio="xMidYMid"><defs><linearGradient id="editing-gradow-gradient" x1="0" x2="1" y1="0.5" y2="0.5" gradientUnits="objectBoundingBox"><stop offset="0" stop-color="#f5eded"></stop><stop offset="1" stop-color="#f5eded"></stop></linearGradient><filter id="editing-gradow-filter" x="-100%" y="-100%" width="300%" height="300%"><feFlood flood-color="rgba(0%,0%,0%,0)" result="flood"></feFlood><feComposite operator="in" in2="SourceAlpha" in="flood" result="shadow"></feComposite><feOffset dx="-1.5" dy="-13.8" in="SourceGraphic" result="offset-1"></feOffset><feOffset dx="1.5" dy="13.8" in="shadow" result="offset-2"></feOffset><feMerge><feMergeNode in="offset-2"></feMergeNode><feMergeNode in="offset-1"></feMergeNode></feMerge></filter></defs><g filter="url(#editing-gradow-filter)"><g transform="translate(204.77000761032104, 86.49500179290771)"><path d="M4.98-7.89L4.98-7.89L4.98-7.89Q3.54-5.28 2.73-3.26L2.73-3.26L2.73-3.26Q1.93-1.25 1.93-0.88L1.93-0.88L1.93-0.88Q1.93-0.52 1.55-0.52L1.55-0.52L1.55-0.52Q0.73-0.52 0.73-2.69L0.73-2.69L0.73-2.69Q0.73-7.02 1.60-11.38L1.60-11.38L1.60-11.38Q2.48-15.75 3.67-18.37L3.67-18.37L3.67-18.37Q4.87-21.00 5.90-21.00L5.90-21.00L5.90-21.00Q6.34-21.00 6.34-20.56L6.34-20.56L6.34-20.56Q4.90-17.38 3.93-13.30L3.93-13.30L3.93-13.30Q2.96-9.22 2.31-4.60L2.31-4.60L2.50-4.60L2.50-4.60Q5.96-13.08 9.28-13.08L9.28-13.08L9.28-13.08Q10.66-13.08 10.66-11.75L10.66-11.75L10.66-11.75Q10.47-11.12 10.17-10.10L10.17-10.10L10.17-10.10Q9.87-9.08 9.38-6.45L9.38-6.45L9.38-6.45Q8.89-3.81 8.89-1.82L8.89-1.82L8.89-1.82Q8.89 1.06 9.74 1.06L9.74 1.06L9.74 1.06Q10.04 1.06 10.34 0.80L10.34 0.80L10.34 0.80Q10.64 0.54 10.74 0.54L10.74 0.54L10.74 0.54Q11.12 0.54 10.72 1.14L10.72 1.14L10.72 1.14Q10.61 1.33 10.24 1.66L10.24 1.66L10.24 1.66Q9.87 1.99 9.52 1.99L9.52 1.99L9.52 1.99Q8.46 1.99 7.87 0.50L7.87 0.50L7.87 0.50Q7.29-0.98 7.29-3.35L7.29-3.35L7.29-3.35Q7.29-7.34 8.49-11.59L8.49-11.59L8.49-11.59Q8.54-12.00 8.16-11.94L8.16-11.94L8.16-11.94Q7.97-11.91 7.78-11.72L7.78-11.72L7.78-11.72Q6.42-10.50 4.98-7.89ZM15.72 0.24L15.72 0.24L15.72 0.24Q12.38 0.24 12.38-4.35L12.38-4.35L12.38-4.35Q12.38-6.94 13.68-9.52L13.68-9.52L13.68-9.52Q15.34-12.78 17.63-12.78L17.63-12.78L17.63-12.78Q17.95-12.78 18.17-12.62L18.17-12.62L18.17-12.62Q18.39-12.46 18.47-12.13L18.47-12.13L18.47-12.13Q16.76-12.13 15.50-9.38L15.50-9.38L15.50-9.38Q14.25-6.64 14.25-3.97L14.25-3.97L14.25-3.97Q14.25-0.73 16.02-0.73L16.02-0.73L16.02-0.73Q17.03-0.73 18.12-2.27L18.12-2.27L18.12-2.27Q19.20-3.81 19.92-6.31L19.92-6.31L19.92-6.31Q20.64-8.81 20.64-11.34L20.64-11.34L20.64-11.67L20.64-11.67Q19.80-12.21 19.26-13.03L19.26-13.03L19.26-13.03Q18.71-13.84 18.71-14.23L18.71-14.23L18.71-14.23Q18.71-14.61 19.05-14.95L19.05-14.95L19.05-14.95Q19.39-15.29 19.75-15.29L19.75-15.29L19.75-15.29Q20.26-15.29 20.75-14.36L20.75-14.36L20.75-14.36Q21.24-13.44 21.43-12.27L21.43-12.27L21.43-12.27Q22.28-11.70 22.92-11.70L22.92-11.70L22.92-11.70Q23.56-11.70 23.94-11.91L23.94-11.91L23.94-11.91Q23.94-11.53 23.66-11.23L23.66-11.23L23.66-11.23Q23.39-10.93 22.82-10.93L22.82-10.93L22.82-10.93Q22.25-10.93 21.52-11.21L21.52-11.21L21.52-11.21Q21.49-8.60 20.73-5.96L20.73-5.96L20.73-5.96Q19.96-3.32 18.60-1.54L18.60-1.54L18.60-1.54Q17.24 0.24 15.72 0.24ZM32.23-12.32L32.23-12.32L32.23-12.32Q33.02-11.72 33.74-11.72L33.74-11.72L33.74-11.72Q34.46-11.72 34.76-11.91L34.76-11.91L34.76-11.91Q34.76-11.56 34.45-11.25L34.45-11.25L34.45-11.25Q34.14-10.93 33.55-10.93L33.55-10.93L33.55-10.93Q32.97-10.93 32.29-11.21L32.29-11.21L32.29-11.21Q32.20-8.65 31.31-5.97L31.31-5.97L31.31-5.97Q30.41-3.29 29.00-1.48L29.00-1.48L29.00-1.48Q27.58 0.33 26.18 0.33L26.18 0.33L26.18 0.33Q24.78 0.33 24.18-0.83L24.18-0.83L24.18-0.83Q23.58-1.99 23.58-3.48L23.58-3.48L23.58-3.48Q23.58-5.28 24.09-7.33L24.09-7.33L24.09-7.33Q24.59-9.38 25.27-10.64L25.27-10.64L25.27-10.64Q25.95-11.89 26.49-11.89L26.49-11.89L26.49-11.89Q27.04-11.89 27.04-11.32L27.04-11.32L27.04-11.32Q25.32-5.39 25.32-2.99L25.32-2.99L25.32-2.99Q25.32-0.60 26.38-0.60L26.38-0.60L26.38-0.60Q27.31-0.60 28.49-2.20L28.49-2.20L28.49-2.20Q29.68-3.81 30.55-6.43L30.55-6.43L30.55-6.43Q31.42-9.06 31.42-11.56L31.42-11.56L31.42-11.72L31.42-11.72Q30.63-12.29 30.14-13.08L30.14-13.08L30.14-13.08Q29.65-13.87 29.65-14.27L29.65-14.27L29.65-14.27Q29.65-14.66 30.00-14.99L30.00-14.99L30.00-14.99Q30.36-15.31 30.76-15.31L30.76-15.31L30.76-15.31Q31.25-15.31 31.67-14.40L31.67-14.40L31.67-14.40Q32.10-13.49 32.23-12.32ZM41.32-13.19L41.32-13.19L41.32-13.19Q43.38-13.19 43.38-10.77L43.38-10.77L43.38-10.77Q43.38-9.38 42.46-7.86L42.46-7.86L42.46-7.86Q40.88-5.33 38.27-5.33L38.27-5.33L38.27-5.33Q37.86-5.33 37.59-5.47L37.59-5.47L37.59-5.47Q37.32-5.60 37.18-5.88L37.18-5.88L37.18-5.88Q39.11-5.88 40.72-8.11L40.72-8.11L40.72-8.11Q42.02-9.90 42.02-11.40L42.02-11.40L42.02-11.40Q42.02-12.51 41.13-12.51L41.13-12.51L41.13-12.51Q39.33-12.51 37.78-9.71L37.78-9.71L37.78-9.71Q36.12-6.66 36.12-3.45L36.12-3.45L36.12-3.45Q36.12-0.73 37.67-0.19L37.67-0.19L37.67-0.19Q37.97-0.08 38.43-0.08L38.43-0.08L38.43-0.08Q38.90-0.08 39.41-0.31L39.41-0.31L39.41-0.31Q39.93-0.54 40.28-0.87L40.28-0.87L40.28-0.87Q40.99-1.52 41.45-2.31L41.45-2.31L41.45-2.31Q41.56-2.53 41.86-2.53L41.86-2.53L41.86-2.53Q42.35-2.53 42.32-2.37L42.32-2.37L42.32-2.37Q42.24-2.07 41.71-1.36L41.71-1.36L41.71-1.36Q41.18-0.65 40.73-0.23L40.73-0.23L40.73-0.23Q40.28 0.19 39.56 0.53L39.56 0.53L39.56 0.53Q38.84 0.87 38.11 0.87L38.11 0.87L38.11 0.87Q35.22 0.87 34.44-1.85L34.44-1.85L34.44-1.85Q34.19-2.77 34.19-3.75L34.19-3.75L34.19-3.75Q34.19-5.58 35.03-7.72L35.03-7.72L35.03-7.72Q36.37-10.99 38.71-12.43L38.71-12.43L38.71-12.43Q39.98-13.19 41.32-13.19ZM53.45-7.81L53.45-7.81L53.45-7.81Q52.41-7.81 52.41-10.06L52.41-10.06L52.41-10.06Q52.41-11.34 52.90-12.46L52.90-12.46L52.90-12.46Q51.05-10.85 48.77-6.49L48.77-6.49L48.77-6.49Q46.48-2.12 46.48-0.79L46.48-0.79L46.48-0.79Q46.48-0.46 46.05-0.46L46.05-0.46L46.05-0.46Q45.26-0.46 45.26-2.61L45.26-2.61L45.26-2.61Q45.26-6.66 46.08-9.96L46.08-9.96L46.08-9.96Q46.89-13.25 48.06-13.25L48.06-13.25L48.06-13.25Q48.58-13.25 48.58-12.65L48.58-12.65L48.58-12.65Q47.33-8.68 46.78-4.52L46.78-4.52L46.97-4.52L46.97-4.52Q49.18-9.60 51.84-12.46L51.84-12.46L51.84-12.46Q53.37-14.09 54.62-14.09L54.62-14.09L54.62-14.09Q54.89-14.09 55.07-13.93L55.07-13.93L55.07-13.93Q55.24-13.76 55.24-13.52L55.24-13.52L55.24-13.52Q55.05-13.33 54.78-12.95L54.78-12.95L54.78-12.95Q54.51-12.57 54.05-11.14L54.05-11.14L54.05-11.14Q53.58-9.71 53.58-8.02L53.58-8.02L53.58-8.02Q53.58-7.81 53.45-7.81ZM69.14-3.32L69.14-3.32L69.14-3.32Q69.14-6.66 70.37-11.78L70.37-11.78L70.37-11.78Q70.45-12.05 70.20-12.02L70.20-12.02L70.20-12.02Q70.01-12.00 69.85-11.86L69.85-11.86L69.85-11.86Q68.65-10.85 67.21-8.13L67.21-8.13L67.21-8.13Q65.77-5.41 64.90-3.17L64.90-3.17L64.90-3.17Q64.03-0.92 64.03-0.54L64.03-0.54L64.03-0.54Q64.03-0.22 63.62-0.22L63.62-0.22L63.62-0.22Q62.80-0.22 62.80-2.37L62.80-2.37L62.80-2.37Q62.80-6.45 63.62-9.72L63.62-9.72L63.62-9.72Q64.44-13.00 65.61-13.00L65.61-13.00L65.61-13.00Q66.12-13.00 66.12-12.43L66.12-12.43L66.12-12.43Q64.87-8.49 64.33-4.32L64.33-4.32L64.57-4.32L64.57-4.32Q68.16-13.30 71.18-13.30L71.18-13.30L71.18-13.30Q72.49-13.30 72.49-12.02L72.49-12.02L72.49-12.02Q71.21-8.21 70.64-4.52L70.64-4.52L70.86-4.52L70.86-4.52Q71.75-6.42 72.66-7.98L72.66-7.98L72.66-7.98Q73.58-9.55 74.80-10.89L74.80-10.89L74.80-10.89Q76.02-12.24 77.00-12.24L77.00-12.24L77.00-12.24Q78.31-12.24 78.31-10.99L78.31-10.99L78.31-10.99Q76.89-6.28 76.89-1.82L76.89-1.82L76.89-1.82Q76.89 1.06 77.76 1.06L77.76 1.06L77.76 1.06Q78.06 1.06 78.36 0.80L78.36 0.80L78.36 0.80Q78.66 0.54 78.77 0.54L78.77 0.54L78.77 0.54Q79.15 0.54 78.74 1.14L78.74 1.14L78.74 1.14Q78.64 1.33 78.27 1.66L78.27 1.66L78.27 1.66Q77.90 1.99 77.55 1.99L77.55 1.99L77.55 1.99Q76.49 1.99 75.90 0.50L75.90 0.50L75.90 0.50Q75.32-0.98 75.32-3.35L75.32-3.35L75.32-3.35Q75.32-7.51 76.19-10.66L76.19-10.66L76.19-10.66Q76.24-10.85 76.05-10.85L76.05-10.85L76.05-10.85Q75.89-10.83 75.72-10.69L75.72-10.69L75.72-10.69Q74.17-9.36 72.27-5.75L72.27-5.75L72.27-5.75Q70.37-2.15 70.37-1.50L70.37-1.50L70.37-1.50Q70.37-1.17 69.93-1.17L69.93-1.17L69.93-1.17Q69.14-1.17 69.14-3.32ZM87.67-13.19L87.67-13.19L87.67-13.19Q89.73-13.19 89.73-10.77L89.73-10.77L89.73-10.77Q89.73-9.38 88.81-7.86L88.81-7.86L88.81-7.86Q87.23-5.33 84.62-5.33L84.62-5.33L84.62-5.33Q84.21-5.33 83.94-5.47L83.94-5.47L83.94-5.47Q83.67-5.60 83.53-5.88L83.53-5.88L83.53-5.88Q85.46-5.88 87.07-8.11L87.07-8.11L87.07-8.11Q88.37-9.90 88.37-11.40L88.37-11.40L88.37-11.40Q88.37-12.51 87.48-12.51L87.48-12.51L87.48-12.51Q85.68-12.51 84.13-9.71L84.13-9.71L84.13-9.71Q82.47-6.66 82.47-3.45L82.47-3.45L82.47-3.45Q82.47-0.73 84.02-0.19L84.02-0.19L84.02-0.19Q84.32-0.08 84.78-0.08L84.78-0.08L84.78-0.08Q85.24-0.08 85.76-0.31L85.76-0.31L85.76-0.31Q86.28-0.54 86.63-0.87L86.63-0.87L86.63-0.87Q87.34-1.52 87.80-2.31L87.80-2.31L87.80-2.31Q87.91-2.53 88.21-2.53L88.21-2.53L88.21-2.53Q88.70-2.53 88.67-2.37L88.67-2.37L88.67-2.37Q88.59-2.07 88.06-1.36L88.06-1.36L88.06-1.36Q87.53-0.65 87.08-0.23L87.08-0.23L87.08-0.23Q86.63 0.19 85.91 0.53L85.91 0.53L85.91 0.53Q85.19 0.87 84.46 0.87L84.46 0.87L84.46 0.87Q81.57 0.87 80.78-1.85L80.78-1.85L80.78-1.85Q80.54-2.77 80.54-3.75L80.54-3.75L80.54-3.75Q80.54-5.58 81.38-7.72L81.38-7.72L81.38-7.72Q82.72-10.99 85.05-12.43L85.05-12.43L85.05-12.43Q86.33-13.19 87.67-13.19Z" fill="url(#editing-gradow-gradient)"></path></g></g><style>text {
  font-size: 64px;
  font-family: Arial Black;
  dominant-baseline: central;
  text-anchor: middle;
}</style></svg>