<svg xmlns="http://www.w3.org/2000/svg" version="1.1" xmlns:xlink="http://www.w3.org/1999/xlink" xmlns:svgjs="http://svgjs.dev/svgjs" width="1500" height="1500" viewBox="0 0 1500 1500"><rect width="1500" height="1500" fill="#ffffff"></rect><g transform="matrix(0.6666666666666666,0,0,0.6666666666666666,249.39393939393938,438.58569500674764)"><svg viewBox="0 0 396 247" data-background-color="#ffffff" preserveAspectRatio="xMidYMid meet" height="935" width="1500" xmlns="http://www.w3.org/2000/svg" xmlns:xlink="http://www.w3.org/1999/xlink"><g id="tight-bounds" transform="matrix(1,0,0,1,0.2400000000000091,-0.09999999999999432)"><svg viewBox="0 0 395.52 247.2" height="247.2" width="395.52"><g><svg></svg></g><g><svg viewBox="0 0 395.52 247.2" height="247.2" width="395.52"><g transform="matrix(1,0,0,1,75.54432,66.12698603219035)"><svg viewBox="0 0 244.43135999999998 114.9460279356193" height="114.9460279356193" width="244.43135999999998"><g><svg viewBox="0 0 244.43135999999998 114.9460279356193" height="114.9460279356193" width="244.43135999999998"><g><svg viewBox="0 0 244.43135999999998 114.9460279356193" height="114.9460279356193" width="244.43135999999998"><g><svg viewBox="0 0 244.43135999999998 114.9460279356193" height="114.9460279356193" width="244.43135999999998"><g id="textblocktransform"><svg viewBox="0 0 244.43135999999998 114.9460279356193" height="114.9460279356193" width="244.43135999999998" id="textblock"><g><svg viewBox="0 0 244.43135999999998 114.9460279356193" height="114.9460279356193" width="244.43135999999998"><g transform="matrix(1,0,0,1,0,0)"><svg width="244.43135999999998" viewBox="-1.05 -33 71.45 33.6" height="114.9460279356193" data-palette-color="#ed1703"><path d="M25.4 0.15L4.45-0.15 0.4 0.35-1.05-2.55 17.65-27.1 14.1-26.6Q12.1-26.3 11.18-25.8 10.25-25.3 9.83-24.25 9.4-23.2 9.05-20.9L9.05-20.9 2.65-20.45Q2.9-21.65 3.65-25.6 4.4-29.55 4.85-32.45L4.85-32.45 5.45-33 14.2-32.45 30.45-32.45 31.35-29.75Q23.75-20.75 13.65-7.15L13.65-7.15Q12.45-5.55 12.35-5.45L12.35-5.45 17.3-6.2Q19.65-6.55 20.9-8.18 22.15-9.8 22.85-13.3L22.85-13.3 29.25-13.75Q29.1-13.15 28.63-11.2 28.15-9.25 27.5-6.2 26.85-3.15 26.55-0.95L26.55-0.95 25.4 0.15ZM66-25.5Q65.6-21.85 65.15-8.8L65.15-8.8Q65.05-6.3 65.4-5.38 65.75-4.45 66.85-4.45L66.85-4.45Q67.3-4.45 68.3-4.55L68.3-4.55 68.6-4.15 67.65 0.15 62.3 0Q60.05 0.05 56.6 0.18 53.15 0.3 52.7 0.4L52.7 0.4 53.85-4.15Q55.2-4.3 55.82-4.85 56.45-5.4 56.6-6.6L56.6-6.6 57.9-18.15 57.25-18.15Q57.15-17.85 55.1-12.93 53.05-8 49.95 0.1L49.95 0.1 43.55 0.6Q43-3.6 42.4-7.65 41.8-11.7 41.55-13.4L41.55-13.4Q41.25-15.1 40.85-18.15L40.85-18.15 40.2-18.15Q38.55-6.15 38.55-5.75L38.55-5.75Q38.55-4.4 39.95-4.4L39.95-4.4 41.2-4.5 41.6-4.1 40.45 0.2Q36.15 0 33.45 0L33.45 0Q32.4 0 30.05 0.15 27.7 0.3 27.65 0.4L27.65 0.4 28.6-4.1Q29.95-4.25 30.65-5 31.35-5.75 31.75-7.4L31.75-7.4Q32.7-11.45 34.15-18.63 35.6-25.8 35.6-26.45L35.6-26.45Q35.6-27.15 35.05-27.45 34.5-27.75 32.85-27.9L32.85-27.9 32.5-28.3 33.5-32.6Q39.4-32.35 40.7-32.35L40.7-32.35Q42.3-32.35 48.4-32.55L48.4-32.55Q48.55-29.2 48.92-24.78 49.3-20.35 49.8-16.65L49.8-16.65 50.45-16.65Q53.4-24.05 56.25-32.35L56.25-32.35 61.8-32.3Q64.25-32.3 65.5-32.4L65.5-32.4Q66.75-32.45 68.2-32.55 69.65-32.65 70.05-32.65L70.05-32.65 70.4-32.45 69.45-28.05Q67.5-28 66.85-27.5 66.2-27 66-25.5L66-25.5Z" opacity="1" transform="matrix(1,0,0,1,0,0)" fill="#000000" class="wordmark-text-0" data-fill-palette-color="primary" id="text-0"></path></svg></g></svg></g></svg></g></svg></g></svg></g></svg></g></svg></g><g><path d="M245.816 0c68.262 0 123.6 55.338 123.6 123.6 0 68.262-55.338 123.6-123.6 123.6-41.821 0-78.791-20.771-101.157-52.559l6.407 0c21.604 28.767 56.003 47.376 94.75 47.376 65.4 0 118.417-53.017 118.417-118.417 0-65.4-53.017-118.417-118.417-118.417-38.746 0-73.145 18.609-94.75 47.376l-6.407 0c22.366-31.788 59.336-52.559 101.157-52.559z" fill="#000000" stroke="transparent" data-fill-palette-color="tertiary"></path></g></svg></g><defs></defs></svg><rect width="395.52" height="247.2" fill="none" stroke="none" visibility="hidden"></rect></g></svg></g></svg>