<!DOCTYPE svg PUBLIC "-//W3C//DTD SVG 1.1//EN" "http://www.w3.org/Graphics/SVG/1.1/DTD/svg11.dtd">
<!-- Uploaded to: SVG Repo, www.svgrepo.com, Transformed by: SVG Repo Mixer Tools -->
<svg width="800px" height="800px" viewBox="0 0 1024 1024" class="icon" version="1.1" xmlns="http://www.w3.org/2000/svg" fill="#000000">
<g id="SVGRepo_bgCarrier" stroke-width="0"/>
<g id="SVGRepo_tracerCarrier" stroke-linecap="round" stroke-linejoin="round"/>
<g id="SVGRepo_iconCarrier">
<path d="M106.666667 810.666667V298.666667h810.666666v512c0 46.933333-38.4 85.333333-85.333333 85.333333H192c-46.933333 0-85.333333-38.4-85.333333-85.333333z" fill="#CFD8DC"/>
<path d="M917.333333 213.333333v128H106.666667v-128c0-46.933333 38.4-85.333333 85.333333-85.333333h640c46.933333 0 85.333333 38.4 85.333333 85.333333z" fill="#F44336"/>
<path d="M704 213.333333m-64 0a64 64 0 1 0 128 0 64 64 0 1 0-128 0Z" fill="#B71C1C"/>
<path d="M320 213.333333m-64 0a64 64 0 1 0 128 0 64 64 0 1 0-128 0Z" fill="#B71C1C"/>
<path d="M704 64c-23.466667 0-42.666667 19.2-42.666667 42.666667v106.666666c0 23.466667 19.2 42.666667 42.666667 42.666667s42.666667-19.2 42.666667-42.666667V106.666667c0-23.466667-19.2-42.666667-42.666667-42.666667zM320 64c-23.466667 0-42.666667 19.2-42.666667 42.666667v106.666666c0 23.466667 19.2 42.666667 42.666667 42.666667s42.666667-19.2 42.666667-42.666667V106.666667c0-23.466667-19.2-42.666667-42.666667-42.666667z" fill="#B0BEC5"/>
<path d="M277.333333 448h128v128h-128zM448 448h128v128h-128zM618.666667 448h128v128h-128zM277.333333 618.666667h128v128h-128zM448 618.666667h128v128h-128z" fill="#B0BEC5"/>
<path d="M618.666667 618.666667h128v128h-128z" fill="#F44336"/>
</g>
</svg>