<svg width="97.3045654296875px" height="92px" xmlns="http://www.w3.org/2000/svg" viewBox="201.34771728515625 29 97.3045654296875 92" style="background: none;" preserveAspectRatio="xMidYMid"><defs><filter id="editing-hover" x="-100%" y="-100%" width="300%" height="300%"><feFlood flood-color="#ffffff" result="flood"></feFlood><feComposite operator="in" in2="SourceAlpha" in="flood" result="shadow"></feComposite><feOffset dx="0" dy="0.1" in="SourceGraphic" result="offset-1"></feOffset><feOffset dx="0" dy="-0.1" in="shadow" result="offset-2"></feOffset><feMerge><feMergeNode in="offset-2"></feMergeNode><feMergeNode in="offset-1"></feMergeNode></feMerge></filter></defs><g filter="url(#editing-hover)"><g transform="translate(223.99579772353172, 93.72500038146973)"><path d="M21.55-2L21.55-2Q21.10-2 19.65-1.95L19.65-1.95L19.65-1.95Q18.20-1.90 16.23-1.80L16.23-1.80L16.23-1.80Q14.25-1.70 11.95-1.55L11.95-1.55L11.95-1.55Q9.65-1.40 7.45-1.23L7.45-1.23L7.45-1.23Q5.25-1.05 3.38-0.85L3.38-0.85L3.38-0.85Q1.50-0.65 0.40-0.45L0.40-0.45L0.45-7.75L14.65-27.10L14.65-27.10Q13.80-27.10 12.25-26.93L12.25-26.93L12.25-26.93Q10.70-26.75 9.13-26.55L9.13-26.55L9.13-26.55Q7.55-26.35 6.40-26.15L6.40-26.15L5.20-26.05L6.15-33.90L26.60-35.35L25.30-28.45L11.65-9.05L11.65-9.05Q12.65-9.05 14.33-9.15L14.33-9.15L14.33-9.15Q16-9.25 17.80-9.35L17.80-9.35L17.80-9.35Q19.60-9.45 21.70-9.60L21.70-9.60L21.55-2ZM28.30-0.85L20.05-0.30L20.05-0.30Q22.25-6.95 24.25-13.35L24.25-13.35L24.25-13.35Q25.10-16.05 26-19L26-19L26-19Q26.90-21.95 27.80-24.85L27.80-24.85L27.80-24.85Q28.70-27.75 29.48-30.45L29.48-30.45L29.48-30.45Q30.25-33.15 30.85-35.45L30.85-35.45L30.85-35.45Q33.60-35.45 36.05-35.75L36.05-35.75L36.05-35.75Q38.50-36.05 41.35-36.30L41.35-36.30L41.35-36.30Q41.20-35.20 41.03-33.83L41.03-33.83L41.03-33.83Q40.85-32.45 40.63-30.95L40.63-30.95L40.63-30.95Q40.40-29.45 40.15-27.85L40.15-27.85L40.15-27.85Q39.90-26.25 39.55-23.75L39.55-23.75L39.55-23.75Q39.20-21.25 38.60-17.50L38.60-17.50L39.25-17.50L39.25-17.50Q40.70-21.30 41.65-23.83L41.65-23.83L41.65-23.83Q42.60-26.35 43.20-27.95L43.20-27.95L43.20-27.95Q43.80-29.55 44.42-31.08L44.42-31.08L44.42-31.08Q45.05-32.60 45.63-33.98L45.63-33.98L45.63-33.98Q46.20-35.35 46.70-36.40L46.70-36.40L46.70-36.40Q47.95-36.50 49.05-36.65L49.05-36.65L49.05-36.65Q50.15-36.80 51.25-36.98L51.25-36.98L51.25-36.98Q52.35-37.15 53.48-37.33L53.48-37.33L53.48-37.33Q54.60-37.50 55.95-37.75L55.95-37.75L55.95-37.75Q55.45-34.85 55-31.80L55-31.80L55-31.80Q54.55-28.75 54.20-25.73L54.20-25.73L54.20-25.73Q53.85-22.70 53.53-19.75L53.53-19.75L53.53-19.75Q53.20-16.80 52.95-14.15L52.95-14.15L52.95-14.15Q52.35-7.95 51.90-2.05L51.90-2.05L43.20-0.50L43.20-0.50Q43.20-0.75 43.28-1.85L43.28-1.85L43.28-1.85Q43.35-2.95 43.48-4.55L43.48-4.55L43.48-4.55Q43.60-6.15 43.83-8.10L43.83-8.10L43.83-8.10Q44.05-10.05 44.28-12L44.28-12L44.28-12Q44.50-13.95 44.75-15.78L44.75-15.78L44.75-15.78Q45-17.60 45.25-18.90L45.25-18.90L44.80-18.90L44.80-18.90Q44.10-16.80 43.25-14.48L43.25-14.48L43.25-14.48Q42.40-12.15 41.53-9.75L41.53-9.75L41.53-9.75Q40.65-7.35 39.80-5.05L39.80-5.05L39.80-5.05Q38.95-2.75 38.30-0.65L38.30-0.65L38.30-0.65Q36.55-0.60 35.30-0.53L35.30-0.53L35.30-0.53Q34.05-0.45 32.40-0.35L32.40-0.35L34-18.90L33.25-18.90L33.25-18.90Q33.15-18.25 32.75-16.73L32.75-16.73L32.75-16.73Q32.35-15.20 31.83-13.23L31.83-13.23L31.83-13.23Q31.30-11.25 30.70-9.13L30.70-9.13L30.70-9.13Q30.10-7 29.58-5.18L29.58-5.18L29.58-5.18Q29.05-3.35 28.70-2.18L28.70-2.18L28.70-2.18Q28.35-1 28.30-0.85L28.30-0.85Z" fill="#fa3c57"></path></g></g><style>text {
  font-size: 64px;
  font-family: Arial Black;
  dominant-baseline: central;
  text-anchor: middle;
}</style></svg>